<?xml version="1.0" encoding="utf-8"?>
<!-- Generator: Adobe Illustrator 17.1.0, SVG Export Plug-In . SVG Version: 6.00 Build 0)  -->
<!DOCTYPE svg PUBLIC "-//W3C//DTD SVG 1.1//EN" "http://www.w3.org/Graphics/SVG/1.1/DTD/svg11.dtd">
<svg version="1.1" id="Layer_1" xmlns="http://www.w3.org/2000/svg" xmlns:xlink="http://www.w3.org/1999/xlink" x="0px" y="0px"
	 width="167px" height="90px" viewBox="148 572 167 90" enable-background="new 148 572 167 90" xml:space="preserve">
<path fill="#D2AE6D" d="M314.4,582.8c-24.1-5.8-53.6-8.8-83-8.9l0,0c-29.4,0.1-58.8,3.1-83,8.9v19.6c5.5,1.6,6.4,5.1,6.4,8.7
	c0,3.6-1,6.3-6.4,7.9c0,0.1,0,0.2,0,0.2v10.2c0,30.1,65.4,14.6,83,32.7c19.3-19.3,83-2,83-32.7v-10.2c0-0.1,0-0.2,0-0.2
	c-5.5-1.6-6.9-4.7-6.9-8.2s1.4-6.7,6.9-8.2L314.4,582.8L314.4,582.8z"/>
<path fill="#ED3237" d="M153.5,622.9v7c0,2.2,0.5,4.3,1.7,6.2c2.8,4,9,6.1,13.6,7.2c7.7,1.9,16,2.6,23.9,3.4
	c11.3,1.1,28.5,2.4,38.8,9.5c10.3-7.2,26.4-8.5,38.1-9.6c7.9-0.7,16.3-1.3,24-3.1c4.6-1,10.9-2.9,13.8-6.9c1.5-2,2-4.3,2-6.7v-7
	c-4.4-2.3-6.9-6.1-6.9-11.6c0-5.5,2.5-9.3,6.9-11.6v-12.3c-25.2-5.7-52.4-7.9-78-7.9s-52.9,2.2-78,7.9v12.3c4.3,2.4,6.4,6.4,6.4,12
	c0,5.5-2.2,9-6.4,11.3V622.9z"/>
<g id="_159442824">
	<path fill="#FEFEFE" d="M188.6,633.4c-1.1,1.9-2.3,3.1-4,3c-2.5-0.2-4.1-3.1-3.8-7.2c0.2-3.4,2.1-6.3,4.7-6.1
		c1.5,0.1,2.8,1,3.3,3.5l0.8-0.1c0-1.3-0.1-2.3-0.1-3.6c-0.6-0.2-2-0.6-3.4-0.7c-4.9-0.4-8.2,2.6-8.5,7.2c-0.2,3.6,1.5,7.5,6.8,7.9
		c1.4,0.1,3.1-0.2,3.7-0.3c0.4-0.7,1-2.3,1.3-3.3L188.6,633.4L188.6,633.4z M203.1,627.1c0-1.4,0-3.3,0-4.2l-0.5-0.1
		c-0.4,0.4-0.7,0.5-1.2,0.5l-7.9-0.5c-0.6-0.1-0.8-0.2-1.1-0.7l-0.5-0.1c-0.1,1.1-0.3,2.7-0.5,4.2l0.8,0.1c0.3-1,0.6-1.7,0.9-2.1
		c0.4-0.4,0.8-0.5,2.1-0.5l0.8,0.1l-0.7,10.8c-0.1,1.9-0.3,2-2,2l-0.1,0.7l6.7,0.4l0.1-0.7c-1.7-0.2-1.9-0.4-1.8-2.3l0.7-10.8l1,0.1
		c0.9,0.1,1.4,0.2,1.8,0.6c0.3,0.4,0.5,1.1,0.7,2.3L203.1,627.1L203.1,627.1z M215.5,638.7l0.1-0.8c-1.3-0.2-1.5-0.5-2.1-2.5
		c-1.2-4-2.3-7.9-3.4-11.9l-1.1,0.2l-4.8,11.6c-0.7,1.7-1,1.9-2.3,2l-0.1,0.8l4.7,0.2l0.1-0.8c-1.5-0.3-1.6-0.5-1.2-1.7
		c0.3-0.9,0.6-1.6,0.8-2.2l3.9,0.2c0.2,0.8,0.5,1.7,0.7,2.4c0.3,1.1,0.2,1.4-1,1.5l-0.1,0.8L215.5,638.7L215.5,638.7z M209.6,632.7
		l-3.2-0.1c0.6-1.6,1.1-3.2,1.8-4.9h0.1L209.6,632.7z M231.6,624.3l-6.3-0.1v0.8c1.4,0.1,1.7,0.3,1.6,2.2l-0.1,3.4l-5.1-0.1l0.1-3.4
		c0-1.9,0.2-2,1.6-2.1v-0.8l-6.3-0.1v0.8c1.6,0.2,1.8,0.3,1.8,2.2l-0.1,8.9c0,1.8-0.2,2-1.7,2.1v0.8l6.3,0.1v-0.8
		c-1.5-0.1-1.7-0.3-1.6-2.2l0.1-4.3l5.1,0.1l-0.1,4.3c0,1.8-0.2,2-1.8,2.1v0.8l6.4,0.1v-0.8c-1.5-0.2-1.7-0.4-1.7-2.2l0.1-8.9
		c0-1.9,0.2-2,1.8-2.1L231.6,624.3L231.6,624.3z M245.6,637.6l-1.2,0.1c-0.7,0-0.7-0.1-0.8-1l-0.2-9.5c-0.1-2,0.1-2.2,1.7-2.4v-0.8
		l-11.6,0.3v0.8l0.8,0.1c1.2,0.2,1.3,0.4,1.3,1.3c0.2,5.8-0.6,9.5-1.1,11.1c-0.2,0.4-0.4,0.5-0.6,0.5h-1.1v4.8h0.8l0.5-1.9
		c0.4-1.6,0.5-2,1.5-2l6.7-0.2c1,0,1.3,0.2,1.4,1.1l0.5,2.7h0.8L245.6,637.6L245.6,637.6z M240.7,636.3c0.1,1.3-0.2,1.4-1.3,1.5
		l-3,0.1c-0.6,0-0.6-0.2-0.5-0.7c0.7-3.3,0.8-8.3,0.8-11.1c0-0.8,0.1-1,0.8-1l2-0.1c0.8,0,0.8,0.1,0.8,1.3L240.7,636.3L240.7,636.3z
		 M260.3,637.9l-0.1-0.8c-1.3-0.1-1.6-0.3-2.3-2.3c-1.6-3.9-3-7.7-4.5-11.6l-1.1,0.3l-3.8,12c-0.5,1.7-0.8,2-2.2,2.2l0.1,0.7
		l4.7-0.2l-0.1-0.8c-1.6-0.1-1.6-0.4-1.3-1.6c0.2-0.9,0.4-1.7,0.6-2.2l3.9-0.2c0.3,0.7,0.6,1.6,0.8,2.3c0.4,1.1,0.3,1.4-0.9,1.6
		l0.1,0.8l6-0.2L260.3,637.9z M253.8,632.3l-3.2,0.1c0.5-1.7,0.8-3.3,1.4-5h0.1L253.8,632.3z M261.1,623.1l0.1,0.7
		c1.4,0.1,1.6,0.2,1.7,2.1l0.5,8.8c0.1,1.9-0.1,2-1.6,2.3l0.1,0.7l6.4-0.4l-0.1-0.7c-1.8-0.1-1.9-0.2-2-2.1l-0.2-3.2l1.3,0.3
		c0.2,0,0.5,0,0.8-0.1c2.3-0.4,4.4-2,4.2-4.9c-0.1-1.5-0.8-2.6-1.8-3.3c-0.9-0.5-2-0.7-3.8-0.6L261.1,623.1L261.1,623.1z
		 M265.6,624.6c0-0.4,0-0.6,0.2-0.7c0.1-0.1,0.3-0.2,0.7-0.2c1.2-0.1,2.5,0.7,2.7,3.3c0.2,3.1-1.5,3.7-2.2,3.7
		c-0.4,0-0.8-0.1-1.1-0.1L265.6,624.6L265.6,624.6z M285.8,625.2c-0.2-1.4-0.4-3.2-0.5-4.2l-0.5,0.1c-0.3,0.5-0.6,0.6-1.1,0.7
		l-7.9,0.5c-0.6,0.1-0.9-0.1-1.3-0.5l-0.5,0.1c0.1,1.1,0,2.7,0,4.2l0.8-0.1c0.2-1,0.4-1.8,0.7-2.2c0.3-0.5,0.8-0.7,2-0.7l0.8-0.1
		l0.7,10.8c0.1,1.9-0.1,2-1.7,2.3l0.1,0.7l6.7-0.4l-0.1-0.7c-1.8,0-2-0.2-2.1-2l-0.7-10.8l1-0.1c0.9-0.1,1.5,0,1.9,0.4s0.7,1,1,2.2
		L285.8,625.2L285.8,625.2z"/>
	<path fill="#FEFEFE" d="M179.9,610.9c1.6-0.2,3-0.5,3.8-1.3c1-0.8,1.6-1.9,1.5-3.6c-0.2-2.3-2-3.6-5-3.3c-0.7,0.1-1.3,0.2-1.9,0.2
		l-0.4-4c-0.1-0.8-0.1-0.8,0.7-0.9l1.3-0.1c1.1-0.1,1.6,0.1,1.9,0.5c0.4,0.5,0.5,0.9,0.9,1.6l0.7-0.2c-0.2-1.3-0.5-2.7-0.5-3.1
		l-9.3,1l0.1,0.7c1.4,0,1.6,0.1,1.8,2.1l0.8,7.6c0.2,1.9,0.1,2.1-1.4,2.4l0.1,0.7L179.9,610.9L179.9,610.9z M178.3,603.9
		c0.3-0.1,0.5-0.1,0.8-0.1c1.7-0.2,2.8,0.7,3.1,2.8c0.2,2.5-1,3.4-2,3.5s-1.3-0.3-1.5-1.7L178.3,603.9L178.3,603.9z M185.9,596.6
		l0.1,0.7c1.3,0.1,1.5,0.2,1.6,1.9l0.7,8.1c0.1,1.7,0,1.9-1.4,2.2l0.1,0.6l6-0.5l-0.1-0.6c-1.6,0-1.8-0.2-1.9-1.9l-0.2-3l1.3,0.2
		c0.2,0,0.4-0.1,0.7-0.1c2.2-0.5,4-1.9,3.7-4.7c-0.1-1.4-0.8-2.4-1.8-3c-0.8-0.5-1.9-0.6-3.6-0.5L185.9,596.6z M190.1,597.9
		c0-0.4,0-0.6,0.2-0.7c0.1-0.1,0.3-0.2,0.7-0.2c1.1-0.1,2.4,0.5,2.6,3c0.2,2.8-1.3,3.5-1.9,3.5c-0.4,0.1-0.7,0-1-0.1L190.1,597.9
		L190.1,597.9z M208,605.1c-0.3,0.9-0.6,1.6-0.9,2c-0.4,0.5-1,0.7-2.1,0.8c-0.8,0.1-1.3,0.1-1.7-0.1c-0.4-0.1-0.5-0.6-0.5-1.6
		l-0.2-3.8l1.2-0.1c1.7-0.1,1.9-0.1,2.3,1.4l0.7-0.1l-0.2-4.2l-0.7,0.1c-0.2,1.5-0.4,1.6-2,1.7l-1.2,0.1l-0.3-4.5
		c-0.1-0.7,0.1-0.8,0.7-0.8l0.8-0.1c1.3-0.1,1.8,0.1,2.2,0.4c0.4,0.4,0.6,0.9,0.8,1.6l0.7-0.2c-0.2-1.2-0.4-2.6-0.4-3l-9.1,0.6
		l0.1,0.7c1.3,0.1,1.5,0.1,1.6,1.9l0.5,8.2c0.1,1.7-0.1,1.9-1.6,2.1l0.1,0.7l9.8-0.6c0.1-0.6,0.4-2.5,0.5-3.3l-0.7-0.1L208,605.1z
		 M220.2,604.4c-0.8,1.9-1.9,3.1-3.3,3.2c-2.3,0.1-4.1-2.5-4.3-6.2c-0.1-3.1,1.3-6.1,3.6-6.1c1.4-0.1,2.6,0.6,3.4,2.9l0.7-0.2
		c-0.2-1.1-0.3-2.1-0.5-3.3c-0.6-0.1-1.9-0.4-3.2-0.3c-4.5,0.2-7.2,3.3-7,7.6c0.1,3.3,2.2,6.7,7.1,6.6c1.3-0.1,2.8-0.5,3.4-0.7
		c0.3-0.7,0.7-2.2,0.8-3.2L220.2,604.4L220.2,604.4z M233.4,597.5c-0.1-1.3-0.2-3-0.2-3.9h-0.5c-0.3,0.4-0.6,0.5-1.1,0.5l-7.3,0.1
		c-0.5,0-0.8-0.1-1.1-0.5h-0.5c0,1.1-0.1,2.5-0.2,3.9h0.7c0.2-1,0.4-1.6,0.7-2c0.3-0.4,0.8-0.5,1.9-0.6h0.8l0.1,10
		c0,1.7-0.1,1.9-1.7,2v0.7l6.3-0.1v-0.7c-1.6-0.1-1.8-0.2-1.9-2l-0.1-10h1c0.8,0,1.4,0.1,1.7,0.4c0.3,0.4,0.5,1,0.8,2l0.7-0.1
		L233.4,597.5z M245.3,604.4c-1,1.9-2,3-3.5,3c-2.3-0.1-4-2.7-3.9-6.5c0.1-3.1,1.6-6,4-6c1.4,0,2.6,0.8,3.2,3.1l0.7-0.1
		c-0.1-1.1-0.2-2.1-0.3-3.3c-0.5-0.1-1.9-0.5-3.2-0.5c-4.5-0.1-7.4,2.8-7.5,7.2c-0.1,3.3,1.8,6.9,6.7,7c1.3,0,2.9-0.3,3.4-0.4
		c0.3-0.7,0.8-2.2,1-3.1L245.3,604.4L245.3,604.4z M259.1,608.6l0.1-0.7c-0.9-0.1-1.4-0.5-1.9-1.7c-0.5-1.3-0.8-2.5-1.1-3.1
		c-0.5-1.4-1.3-2-2.3-2.3v-0.1c0.3-0.2,1.2-0.7,1.9-2.2c1-1.9,1.3-2.2,2.1-2.2h0.4c0.4,0,0.8-0.2,0.8-0.7c0-0.5-0.4-1-1.1-1
		c-1-0.1-1.6,0.5-2.2,2c-0.8,1.7-1.1,2.4-1.7,3c-0.7,0.6-1.4,0.8-2.3,0.8l0.1-3c0.1-1.9,0.2-2,1.6-2l0.1-0.7l-5.8-0.2l-0.1,0.7
		c1.4,0.2,1.6,0.4,1.4,2.2l-0.4,7.9c-0.1,1.9-0.2,2-1.7,2.1l-0.1,0.7l5.8,0.2l0.1-0.7c-1.4-0.2-1.5-0.4-1.4-2.2l0.2-4.2
		c1,0,1.5,0.6,1.9,2.2c0.4,1.3,0.7,2.4,0.9,3c0.5,1.3,1,2,2.5,2l2.3,0.1V608.6z M273.3,609.6l0.1-0.7c-1.4-0.2-1.6-0.4-1.4-2.3
		l0.6-7.9c0.1-1.7,0.3-1.9,1.8-1.9l0.1-0.7l-4.5-0.4v0.2c0,0.2-0.1,0.4-0.2,0.7l-5.2,10.1h-0.1c0.3-2.3,0.4-3.6,0.4-4.5l0.3-3.9
		c0.1-1.9,0.3-2,1.7-2.1l0.1-0.7l-5.8-0.4l-0.1,0.7c1.4,0.2,1.6,0.5,1.5,2.3l-0.5,7.7c-0.1,1.9-0.3,2-1.8,2.1l-0.1,0.7l4.5,0.4v-0.2
		c0-0.2,0.1-0.5,0.2-0.8l5.2-10.1h0.1c-0.2,2.2-0.3,3.3-0.4,4l-0.4,4.7c-0.1,1.9-0.3,2-1.7,2l-0.1,0.7L273.3,609.6L273.3,609.6z
		 M288,611.2l0.1-0.7c-1.4-0.3-1.6-0.5-1.4-2.3l0.8-7.9c0.2-1.7,0.4-1.9,1.8-1.9l0.1-0.7l-4.5-0.5v0.2c0,0.2-0.1,0.4-0.2,0.7
		l-5.5,9.9h-0.1c0.4-2.3,0.5-3.6,0.6-4.5l0.4-3.9c0.2-1.9,0.4-2,1.8-2l0.1-0.7l-5.8-0.6l-0.1,0.7c1.4,0.3,1.6,0.5,1.4,2.4l-0.8,7.7
		c-0.2,1.9-0.4,2-1.9,2l-0.1,0.7l4.5,0.5V610c0-0.2,0.1-0.5,0.2-0.8l5.5-9.9h0.1c-0.3,2.2-0.4,3.3-0.5,4l-0.5,4.7
		c-0.2,1.9-0.4,2-1.7,2l-0.1,0.7L288,611.2L288,611.2z M283.1,596c1.7,0.2,2.8-0.4,2.9-1.6c0.1-0.5-0.2-1-0.8-1
		c-0.7-0.1-0.9,0.5-0.9,0.9c-0.1,0.5-0.4,1-1.1,0.9c-0.7-0.1-1-0.5-0.9-1.1c0.1-0.4,0-1-0.7-1c-0.5-0.1-1,0.4-1,0.8
		C280.5,595.1,281.4,595.9,283.1,596L283.1,596z"/>
</g>
</svg>
